<svg width="265" height="93" viewBox="0 0 265 93" fill="none" xmlns="http://www.w3.org/2000/svg">
<path d="M0.70202 89.6241C0.218253 90.6171 0.631064 91.8142 1.62406 92.298C2.61706 92.7817 3.81421 92.3689 4.29798 91.3759L0.70202 89.6241ZM176 74.5L174.79 72.9077L176 74.5ZM4.29798 91.3759C4.86909 90.2037 5.45852 89.0399 6.06748 87.8879L2.53117 86.0185C1.90045 87.2117 1.29117 88.4147 0.70202 89.6241L4.29798 91.3759ZM9.96905 81.1387C11.3652 78.9372 12.8487 76.8142 14.4291 74.7968L11.2802 72.3301C9.6096 74.4628 8.05029 76.6954 6.59104 78.9965L9.96905 81.1387ZM19.5314 69.0266C21.3521 67.2154 23.2816 65.5438 25.3299 64.0392L22.9618 60.8155C20.7403 62.4475 18.6604 64.2509 16.7104 66.1907L19.5314 69.0266ZM31.8123 60.0674C34.0368 58.957 36.387 58.0263 38.8735 57.3018L37.7546 53.4615C35.0331 54.2545 32.4598 55.2735 30.0258 56.4885L31.8123 60.0674ZM46.3325 55.8185C48.7545 55.5466 51.2958 55.4526 53.9644 55.5573L54.1213 51.5604C51.2589 51.4481 48.5158 51.5482 45.8862 51.8435L46.3325 55.8185ZM61.6325 56.3625C64.0541 56.7676 66.5696 57.3238 69.1832 58.0433L70.2449 54.1868C67.5067 53.4329 64.857 52.8463 62.2924 52.4173L61.6325 56.3625ZM76.5952 60.4336C77.7924 60.8739 79.0081 61.346 80.2427 61.8511L81.7573 58.1489C80.4795 57.6262 79.2191 57.1366 77.9756 56.6794L76.5952 60.4336ZM80.2427 61.8511C81.5776 62.3972 82.8889 62.9365 84.1775 63.4688L85.7048 59.7719C84.4122 59.2379 83.0967 58.6968 81.7573 58.1489L80.2427 61.8511ZM92.0029 66.7282C94.7088 67.8633 97.3055 68.9595 99.803 70.0145L101.36 66.3298C98.8619 65.2747 96.2611 64.1768 93.5502 63.0396L92.0029 66.7282ZM107.616 73.3089C110.36 74.4607 112.976 75.5489 115.476 76.5673L116.985 72.8629C114.503 71.8519 111.902 70.7697 109.164 69.6205L107.616 73.3089ZM123.416 79.7027C126.25 80.7771 128.934 81.7349 131.493 82.5633L132.725 78.7578C130.244 77.9546 127.624 77.0201 124.833 75.9624L123.416 79.7027ZM139.839 84.884C142.868 85.5615 145.751 85.9963 148.545 86.1539L148.771 82.1603C146.234 82.0172 143.571 81.6199 140.712 80.9805L139.839 84.884ZM157.458 85.6342C160.335 85.1076 163.15 84.2211 165.983 82.9536L164.349 79.3025C161.789 80.4478 159.28 81.2343 156.738 81.6996L157.458 85.6342ZM173.654 78.6402C174.825 77.8547 176.008 77.0058 177.21 76.0923L174.79 72.9077C173.644 73.7783 172.525 74.5811 171.425 75.319L173.654 78.6402ZM177.21 76.0923C178.244 75.3065 179.284 74.52 180.329 73.734L177.924 70.5379C176.874 71.3275 175.829 72.1179 174.79 72.9077L177.21 76.0923ZM186.601 69.0555C188.711 67.4943 190.821 65.9465 192.911 64.4233L190.555 61.1907C188.458 62.719 186.341 64.2724 184.222 65.8397L186.601 69.0555ZM199.253 59.8328C201.427 58.2693 203.557 56.7472 205.623 55.2802L203.306 52.0192C201.235 53.4905 199.098 55.0171 196.917 56.5853L199.253 59.8328ZM212.016 50.7654C214.3 49.1627 216.454 47.6607 218.442 46.2831L216.163 42.9956C214.169 44.3775 212.008 45.884 209.718 47.4914L212.016 50.7654ZM224.891 41.8463C226.111 41.0145 227.192 40.2814 228.117 39.6592L225.883 36.3408C224.951 36.9683 223.862 37.7061 222.637 38.5418L224.891 41.8463Z" fill="#F4F4F4"/>
<circle cx="233" cy="32" r="32" fill="#F4F4F4"/>
<g filter="url(#filter0_dd_3_17)">
<circle cx="233" cy="32" r="24" fill="#DEDEDE"/>
</g>
<g filter="url(#filter1_ii_3_17)">
<path fill-rule="evenodd" clip-rule="evenodd" d="M225.762 39.6045C223.514 37.3565 220.893 35.5966 217.968 34.3057C216.185 33.5186 215.973 30.6841 217.763 29.9119L244.259 18.4792C245.921 17.762 247.605 19.4458 246.887 21.1079L235.455 47.6037C234.682 49.3933 231.848 49.1813 231.061 47.3983C229.77 44.4737 228.01 41.8525 225.762 39.6045Z" fill="#0075FF"/>
</g>
<path d="M14.3529 70.5C12.1529 70.5 10.1696 70.1167 8.40293 69.35C6.63626 68.5833 5.1696 67.45 4.00293 65.95L7.50293 62.95C8.50293 64.1167 9.58626 64.9667 10.7529 65.5C11.9529 66 13.3029 66.25 14.8029 66.25C15.4029 66.25 15.9529 66.1833 16.4529 66.05C16.9863 65.8833 17.4363 65.65 17.8029 65.35C18.2029 65.05 18.5029 64.7 18.7029 64.3C18.9029 63.8667 19.0029 63.4 19.0029 62.9C19.0029 62.0333 18.6863 61.3333 18.0529 60.8C17.7196 60.5667 17.1863 60.3167 16.4529 60.05C15.7529 59.75 14.8363 59.45 13.7029 59.15C11.7696 58.65 10.1863 58.0833 8.95293 57.45C7.7196 56.8167 6.7696 56.1 6.10293 55.3C5.60293 54.6667 5.23626 53.9833 5.00293 53.25C4.7696 52.4833 4.65293 51.65 4.65293 50.75C4.65293 49.2833 5.0696 47.9833 5.90293 46.85C6.73626 45.7167 7.85293 44.8333 9.25293 44.2C10.6863 43.5333 12.2863 43.2 14.0529 43.2C15.2863 43.2 16.5029 43.3667 17.7029 43.7C18.9363 44.0333 20.0696 44.5167 21.1029 45.15C22.1363 45.7833 23.0029 46.5333 23.7029 47.4L20.7529 50.65C20.1196 50.0167 19.4196 49.4667 18.6529 49C17.9196 48.5 17.1696 48.1167 16.4029 47.85C15.6363 47.5833 14.9363 47.45 14.3029 47.45C13.6029 47.45 12.9696 47.5167 12.4029 47.65C11.8363 47.7833 11.3529 47.9833 10.9529 48.25C10.5863 48.5167 10.3029 48.85 10.1029 49.25C9.90293 49.65 9.80293 50.1 9.80293 50.6C9.83626 51.0333 9.93626 51.45 10.1029 51.85C10.3029 52.2167 10.5696 52.5333 10.9029 52.8C11.2696 53.0667 11.8196 53.35 12.5529 53.65C13.2863 53.95 14.2196 54.2333 15.3529 54.5C17.0196 54.9333 18.3863 55.4167 19.4529 55.95C20.5529 56.45 21.4196 57.0333 22.0529 57.7C22.7196 58.3333 23.1863 59.0667 23.4529 59.9C23.7196 60.7333 23.8529 61.6667 23.8529 62.7C23.8529 64.2 23.4196 65.55 22.5529 66.75C21.7196 67.9167 20.5863 68.8333 19.1529 69.5C17.7196 70.1667 16.1196 70.5 14.3529 70.5ZM30.4275 70V43.75H35.5775V70H30.4275ZM32.9275 37.95C31.8275 37.95 30.9775 37.6667 30.3775 37.1C29.7775 36.5333 29.4775 35.7333 29.4775 34.7C29.4775 33.7333 29.7775 32.95 30.3775 32.35C31.0109 31.75 31.8609 31.45 32.9275 31.45C34.0275 31.45 34.8775 31.7333 35.4775 32.3C36.0775 32.8667 36.3775 33.6667 36.3775 34.7C36.3775 35.6667 36.0609 36.45 35.4275 37.05C34.8275 37.65 33.9942 37.95 32.9275 37.95ZM54.4436 70.5C52.0436 70.5 49.8936 69.9167 47.9936 68.75C46.1269 67.55 44.6436 65.9333 43.5436 63.9C42.4436 61.8333 41.8936 59.4833 41.8936 56.85C41.8936 54.2167 42.4269 51.8833 43.4936 49.85C44.5936 47.7833 46.0769 46.1667 47.9436 45C49.8102 43.8 51.9269 43.2 54.2936 43.2C55.5936 43.2 56.8436 43.4167 58.0436 43.85C59.2769 44.25 60.3769 44.8167 61.3436 45.55C62.3102 46.25 63.0602 47.0333 63.5936 47.9C64.1602 48.7333 64.4436 49.5833 64.4436 50.45L62.9436 50.55V33H68.0936V70H62.9436V63.75H63.9436C63.9436 64.55 63.6769 65.35 63.1436 66.15C62.6102 66.9167 61.8936 67.6333 60.9936 68.3C60.1269 68.9667 59.1102 69.5 57.9436 69.9C56.8102 70.3 55.6436 70.5 54.4436 70.5ZM55.1436 66.05C56.7102 66.05 58.0936 65.65 59.2936 64.85C60.4936 64.05 61.4269 62.9667 62.0936 61.6C62.7936 60.2 63.1436 58.6167 63.1436 56.85C63.1436 55.0833 62.7936 53.5167 62.0936 52.15C61.4269 50.75 60.4936 49.65 59.2936 48.85C58.0936 48.05 56.7102 47.65 55.1436 47.65C53.5769 47.65 52.1936 48.05 50.9936 48.85C49.7936 49.65 48.8436 50.75 48.1436 52.15C47.4769 53.5167 47.1436 55.0833 47.1436 56.85C47.1436 58.6167 47.4769 60.2 48.1436 61.6C48.8436 62.9667 49.7936 64.05 50.9936 64.85C52.1936 65.65 53.5769 66.05 55.1436 66.05ZM87.433 70.5C84.733 70.5 82.333 69.9333 80.233 68.8C78.1663 67.6333 76.533 66.05 75.333 64.05C74.1663 62.05 73.583 59.75 73.583 57.15C73.583 55.0833 73.9163 53.2 74.583 51.5C75.2497 49.8 76.1663 48.3333 77.333 47.1C78.533 45.8333 79.9497 44.8667 81.583 44.2C83.2497 43.5 85.0497 43.15 86.983 43.15C88.683 43.15 90.2663 43.4833 91.733 44.15C93.1997 44.7833 94.4663 45.6667 95.533 46.8C96.633 47.9333 97.4663 49.2833 98.033 50.85C98.633 52.3833 98.9163 54.0667 98.883 55.9L98.833 58.1H77.383L76.233 54H94.383L93.633 54.85V53.65C93.533 52.55 93.1663 51.5667 92.533 50.7C91.8997 49.8333 91.0997 49.15 90.133 48.65C89.1663 48.15 88.1163 47.9 86.983 47.9C85.183 47.9 83.6663 48.25 82.433 48.95C81.1997 49.6167 80.2663 50.6167 79.633 51.95C78.9997 53.25 78.683 54.8667 78.683 56.8C78.683 58.6333 79.0663 60.2333 79.833 61.6C80.5997 62.9333 81.683 63.9667 83.083 64.7C84.483 65.4333 86.0997 65.8 87.933 65.8C89.233 65.8 90.433 65.5833 91.533 65.15C92.6663 64.7167 93.883 63.9333 95.183 62.8L97.783 66.45C96.983 67.25 95.9997 67.95 94.833 68.55C93.6997 69.15 92.483 69.6333 91.183 70C89.9163 70.3333 88.6663 70.5 87.433 70.5ZM107.73 70V37.05H112.88V70H107.73ZM102.28 48.75V43.75H118.98V48.75H102.28ZM123.669 70V43.75H128.869V52L128.369 50C128.736 48.7333 129.353 47.5833 130.219 46.55C131.119 45.5167 132.136 44.7 133.269 44.1C134.436 43.5 135.636 43.2 136.869 43.2C137.436 43.2 137.969 43.25 138.469 43.35C139.003 43.45 139.419 43.5667 139.719 43.7L138.369 49.3C137.969 49.1333 137.519 49 137.019 48.9C136.553 48.7667 136.086 48.7 135.619 48.7C134.719 48.7 133.853 48.8833 133.019 49.25C132.219 49.5833 131.503 50.0667 130.869 50.7C130.269 51.3 129.786 52.0167 129.419 52.85C129.053 53.65 128.869 54.5333 128.869 55.5V70H123.669ZM158.262 70V52.9C158.262 51.4333 157.729 50.25 156.662 49.35C155.629 48.4167 154.312 47.95 152.712 47.95C151.246 47.95 149.912 48.25 148.712 48.85C147.546 49.45 146.479 50.3667 145.512 51.6L142.162 48.25C143.729 46.55 145.412 45.2833 147.212 44.45C149.046 43.6167 151.012 43.2 153.112 43.2C155.112 43.2 156.846 43.5333 158.312 44.2C159.779 44.8667 160.912 45.85 161.712 47.15C162.512 48.4167 162.912 49.9667 162.912 51.8V70H158.262ZM150.412 70.5C148.712 70.5 147.196 70.1667 145.862 69.5C144.529 68.8333 143.462 67.9167 142.662 66.75C141.896 65.55 141.512 64.15 141.512 62.55C141.512 61.15 141.762 59.9167 142.262 58.85C142.762 57.7833 143.496 56.9 144.462 56.2C145.462 55.5 146.696 54.9667 148.162 54.6C149.662 54.2333 151.379 54.05 153.312 54.05H160.612L160.162 58.15H152.662C151.662 58.15 150.762 58.25 149.962 58.45C149.196 58.6167 148.529 58.9 147.962 59.3C147.429 59.6667 147.029 60.1167 146.762 60.65C146.496 61.15 146.362 61.75 146.362 62.45C146.362 63.1833 146.546 63.8333 146.912 64.4C147.279 64.9333 147.779 65.35 148.412 65.65C149.046 65.95 149.779 66.1 150.612 66.1C151.812 66.1 152.946 65.9 154.012 65.5C155.112 65.0667 156.079 64.4833 156.912 63.75C157.779 63.0167 158.446 62.2 158.912 61.3L160.112 64.65C159.412 65.8167 158.546 66.8333 157.512 67.7C156.479 68.5667 155.362 69.25 154.162 69.75C152.962 70.25 151.712 70.5 150.412 70.5ZM180.571 70.5C178.138 70.5 175.955 69.9 174.021 68.7C172.121 67.5 170.605 65.8667 169.471 63.8C168.371 61.7333 167.821 59.4167 167.821 56.85C167.821 54.2833 168.371 51.9667 169.471 49.9C170.605 47.8333 172.121 46.2 174.021 45C175.955 43.8 178.138 43.2 180.571 43.2C182.905 43.2 185.021 43.6833 186.921 44.65C188.855 45.5833 190.321 46.8667 191.321 48.5L188.471 52C187.938 51.2333 187.255 50.5333 186.421 49.9C185.588 49.2667 184.705 48.7667 183.771 48.4C182.838 48.0333 181.938 47.85 181.071 47.85C179.471 47.85 178.038 48.25 176.771 49.05C175.538 49.8167 174.555 50.8833 173.821 52.25C173.088 53.6167 172.721 55.15 172.721 56.85C172.721 58.55 173.105 60.0833 173.871 61.45C174.638 62.7833 175.655 63.85 176.921 64.65C178.188 65.45 179.588 65.85 181.121 65.85C182.021 65.85 182.888 65.7 183.721 65.4C184.588 65.1 185.421 64.65 186.221 64.05C187.021 63.45 187.771 62.7167 188.471 61.85L191.321 65.35C190.255 66.85 188.721 68.0833 186.721 69.05C184.755 70.0167 182.705 70.5 180.571 70.5ZM200.879 61.8L200.629 56.2L213.179 43.75H220.129L200.879 61.8ZM196.179 70V33H201.329V70H196.179ZM213.879 70L203.979 58.45L207.629 55.1L220.479 70H213.879Z" fill="black"/>
<defs>
<filter id="filter0_dd_3_17" x="203" y="2" width="60" height="60" filterUnits="userSpaceOnUse" color-interpolation-filters="sRGB">
<feFlood flood-opacity="0" result="BackgroundImageFix"/>
<feColorMatrix in="SourceAlpha" type="matrix" values="0 0 0 0 0 0 0 0 0 0 0 0 0 0 0 0 0 0 127 0" result="hardAlpha"/>
<feOffset dx="2" dy="2"/>
<feGaussianBlur stdDeviation="2"/>
<feComposite in2="hardAlpha" operator="out"/>
<feColorMatrix type="matrix" values="0 0 0 0 0 0 0 0 0 0 0 0 0 0 0 0 0 0 0.25 0"/>
<feBlend mode="normal" in2="BackgroundImageFix" result="effect1_dropShadow_3_17"/>
<feColorMatrix in="SourceAlpha" type="matrix" values="0 0 0 0 0 0 0 0 0 0 0 0 0 0 0 0 0 0 127 0" result="hardAlpha"/>
<feOffset dx="-2" dy="-2"/>
<feGaussianBlur stdDeviation="2"/>
<feComposite in2="hardAlpha" operator="out"/>
<feColorMatrix type="matrix" values="0 0 0 0 1 0 0 0 0 1 0 0 0 0 1 0 0 0 1 0"/>
<feBlend mode="normal" in2="effect1_dropShadow_3_17" result="effect2_dropShadow_3_17"/>
<feBlend mode="normal" in="SourceGraphic" in2="effect2_dropShadow_3_17" result="shape"/>
</filter>
<filter id="filter1_ii_3_17" x="216.521" y="16.3094" width="30.5359" height="34.5359" filterUnits="userSpaceOnUse" color-interpolation-filters="sRGB">
<feFlood flood-opacity="0" result="BackgroundImageFix"/>
<feBlend mode="normal" in="SourceGraphic" in2="BackgroundImageFix" result="shape"/>
<feColorMatrix in="SourceAlpha" type="matrix" values="0 0 0 0 0 0 0 0 0 0 0 0 0 0 0 0 0 0 127 0" result="hardAlpha"/>
<feOffset dy="2"/>
<feGaussianBlur stdDeviation="2"/>
<feComposite in2="hardAlpha" operator="arithmetic" k2="-1" k3="1"/>
<feColorMatrix type="matrix" values="0 0 0 0 0 0 0 0 0 0.166324 0 0 0 0 0.3625 0 0 0 0.64 0"/>
<feBlend mode="normal" in2="shape" result="effect1_innerShadow_3_17"/>
<feColorMatrix in="SourceAlpha" type="matrix" values="0 0 0 0 0 0 0 0 0 0 0 0 0 0 0 0 0 0 127 0" result="hardAlpha"/>
<feOffset dy="-2"/>
<feGaussianBlur stdDeviation="2"/>
<feComposite in2="hardAlpha" operator="arithmetic" k2="-1" k3="1"/>
<feColorMatrix type="matrix" values="0 0 0 0 0.4125 0 0 0 0 0.680707 0 0 0 0 1 0 0 0 1 0"/>
<feBlend mode="normal" in2="effect1_innerShadow_3_17" result="effect2_innerShadow_3_17"/>
</filter>
</defs>
</svg>
